<mxfile host="Electron" modified="2023-09-01T20:28:32.077Z" agent="Mozilla/5.0 (Windows NT 10.0; Win64; x64) AppleWebKit/537.36 (KHTML, like Gecko) draw.io/21.3.7 Chrome/112.0.5615.204 Electron/24.5.0 Safari/537.36" etag="KdobaTpb7kmSapZp6S4b" version="21.3.7" type="device">
  <diagram name="Page-1" id="4VhSumrVANlsA-MGtWiG">
    <mxGraphModel dx="1834" dy="884" grid="0" gridSize="10" guides="1" tooltips="1" connect="1" arrows="1" fold="1" page="0" pageScale="1" pageWidth="827" pageHeight="1169" math="0" shadow="0">
      <root>
        <mxCell id="0" />
        <mxCell id="1" parent="0" />
        <mxCell id="nOa9KcKh8e6igN_ZCxx_-35" value="reverse a r&lt;sub&gt;2&lt;/sub&gt;" style="edgeStyle=orthogonalEdgeStyle;rounded=1;orthogonalLoop=1;jettySize=auto;html=1;exitX=0.75;exitY=0;exitDx=0;exitDy=0;entryX=0.25;entryY=0;entryDx=0;entryDy=0;" edge="1" parent="1" source="nOa9KcKh8e6igN_ZCxx_-9" target="nOa9KcKh8e6igN_ZCxx_-20">
          <mxGeometry relative="1" as="geometry" />
        </mxCell>
        <mxCell id="nOa9KcKh8e6igN_ZCxx_-9" value="f(x&lt;sub&gt;1&lt;/sub&gt;,x&lt;sub&gt;2&lt;/sub&gt;)" style="rounded=0;whiteSpace=wrap;html=1;fillColor=#fff2cc;strokeColor=#d6b656;" vertex="1" parent="1">
          <mxGeometry x="-160" y="120" width="80" height="40" as="geometry" />
        </mxCell>
        <mxCell id="nOa9KcKh8e6igN_ZCxx_-11" style="edgeStyle=orthogonalEdgeStyle;rounded=0;orthogonalLoop=1;jettySize=auto;html=1;exitX=0.5;exitY=0;exitDx=0;exitDy=0;entryX=0.5;entryY=1;entryDx=0;entryDy=0;" edge="1" parent="1" source="nOa9KcKh8e6igN_ZCxx_-10" target="nOa9KcKh8e6igN_ZCxx_-9">
          <mxGeometry relative="1" as="geometry" />
        </mxCell>
        <mxCell id="nOa9KcKh8e6igN_ZCxx_-10" value="+" style="ellipse;whiteSpace=wrap;html=1;fillColor=#d5e8d4;strokeColor=#82b366;" vertex="1" parent="1">
          <mxGeometry x="-140" y="200" width="40" height="40" as="geometry" />
        </mxCell>
        <mxCell id="nOa9KcKh8e6igN_ZCxx_-13" style="rounded=0;orthogonalLoop=1;jettySize=auto;html=1;exitX=0.5;exitY=0;exitDx=0;exitDy=0;entryX=1;entryY=1;entryDx=0;entryDy=0;" edge="1" parent="1" source="nOa9KcKh8e6igN_ZCxx_-12" target="nOa9KcKh8e6igN_ZCxx_-10">
          <mxGeometry relative="1" as="geometry" />
        </mxCell>
        <mxCell id="nOa9KcKh8e6igN_ZCxx_-12" value="&lt;font style=&quot;font-size: 21px;&quot;&gt;&lt;sub&gt;*&lt;/sub&gt;&lt;/font&gt;" style="ellipse;whiteSpace=wrap;html=1;fillColor=#d5e8d4;strokeColor=#82b366;" vertex="1" parent="1">
          <mxGeometry x="-100" y="280" width="40" height="40" as="geometry" />
        </mxCell>
        <mxCell id="nOa9KcKh8e6igN_ZCxx_-17" style="rounded=0;orthogonalLoop=1;jettySize=auto;html=1;exitX=1;exitY=0;exitDx=0;exitDy=0;entryX=0;entryY=1;entryDx=0;entryDy=0;" edge="1" parent="1" source="nOa9KcKh8e6igN_ZCxx_-14" target="nOa9KcKh8e6igN_ZCxx_-12">
          <mxGeometry relative="1" as="geometry" />
        </mxCell>
        <mxCell id="nOa9KcKh8e6igN_ZCxx_-18" style="rounded=0;orthogonalLoop=1;jettySize=auto;html=1;exitX=0.5;exitY=0;exitDx=0;exitDy=0;entryX=0;entryY=1;entryDx=0;entryDy=0;" edge="1" parent="1" source="nOa9KcKh8e6igN_ZCxx_-14" target="nOa9KcKh8e6igN_ZCxx_-10">
          <mxGeometry relative="1" as="geometry" />
        </mxCell>
        <mxCell id="nOa9KcKh8e6igN_ZCxx_-14" value="x&lt;sub&gt;1&lt;/sub&gt;" style="rounded=0;whiteSpace=wrap;html=1;fillColor=#fff2cc;strokeColor=#d6b656;" vertex="1" parent="1">
          <mxGeometry x="-180" y="360" width="40" height="40" as="geometry" />
        </mxCell>
        <mxCell id="nOa9KcKh8e6igN_ZCxx_-16" style="edgeStyle=orthogonalEdgeStyle;rounded=0;orthogonalLoop=1;jettySize=auto;html=1;exitX=0.5;exitY=0;exitDx=0;exitDy=0;entryX=0.5;entryY=1;entryDx=0;entryDy=0;" edge="1" parent="1" source="nOa9KcKh8e6igN_ZCxx_-15" target="nOa9KcKh8e6igN_ZCxx_-12">
          <mxGeometry relative="1" as="geometry" />
        </mxCell>
        <mxCell id="nOa9KcKh8e6igN_ZCxx_-15" value="x&lt;sub&gt;2&lt;/sub&gt;" style="rounded=0;whiteSpace=wrap;html=1;fillColor=#fff2cc;strokeColor=#d6b656;" vertex="1" parent="1">
          <mxGeometry x="-100" y="360" width="40" height="40" as="geometry" />
        </mxCell>
        <mxCell id="nOa9KcKh8e6igN_ZCxx_-34" style="edgeStyle=orthogonalEdgeStyle;rounded=0;orthogonalLoop=1;jettySize=auto;html=1;exitX=0.5;exitY=1;exitDx=0;exitDy=0;entryX=0.5;entryY=0;entryDx=0;entryDy=0;" edge="1" parent="1" source="nOa9KcKh8e6igN_ZCxx_-20" target="nOa9KcKh8e6igN_ZCxx_-21">
          <mxGeometry relative="1" as="geometry" />
        </mxCell>
        <mxCell id="nOa9KcKh8e6igN_ZCxx_-43" value="&lt;div style=&quot;text-align: left;&quot;&gt;resolve r&lt;sub&gt;2&lt;/sub&gt;&lt;/div&gt;combineAdjoints r&lt;sub&gt;2&lt;/sub&gt;" style="edgeStyle=orthogonalEdgeStyle;rounded=1;orthogonalLoop=1;jettySize=auto;html=1;exitX=0.75;exitY=0;exitDx=0;exitDy=0;entryX=0.25;entryY=0;entryDx=0;entryDy=0;" edge="1" parent="1" source="nOa9KcKh8e6igN_ZCxx_-20" target="nOa9KcKh8e6igN_ZCxx_-40">
          <mxGeometry relative="1" as="geometry" />
        </mxCell>
        <mxCell id="nOa9KcKh8e6igN_ZCxx_-20" value="f&#39;(x&lt;sub&gt;1&lt;/sub&gt;,x&lt;sub&gt;2&lt;/sub&gt;)" style="rounded=0;whiteSpace=wrap;html=1;fillColor=#fff2cc;strokeColor=#d6b656;" vertex="1" parent="1">
          <mxGeometry x="40" y="120" width="80" height="40" as="geometry" />
        </mxCell>
        <mxCell id="nOa9KcKh8e6igN_ZCxx_-21" value="+" style="ellipse;whiteSpace=wrap;html=1;fillColor=#dae8fc;strokeColor=#6c8ebf;" vertex="1" parent="1">
          <mxGeometry x="60" y="200" width="40" height="40" as="geometry" />
        </mxCell>
        <mxCell id="nOa9KcKh8e6igN_ZCxx_-29" value="r&#39;&lt;sub&gt;2&amp;nbsp;&lt;/sub&gt;= ([a], Nothing)" style="text;html=1;strokeColor=none;fillColor=none;align=left;verticalAlign=middle;whiteSpace=wrap;rounded=0;" vertex="1" parent="1">
          <mxGeometry x="110" y="200" width="120" height="40" as="geometry" />
        </mxCell>
        <mxCell id="nOa9KcKh8e6igN_ZCxx_-36" value="r&lt;sub&gt;2&lt;/sub&gt;" style="text;html=1;strokeColor=none;fillColor=none;align=center;verticalAlign=middle;whiteSpace=wrap;rounded=0;" vertex="1" parent="1">
          <mxGeometry x="-100" y="200" width="40" height="40" as="geometry" />
        </mxCell>
        <mxCell id="nOa9KcKh8e6igN_ZCxx_-37" value="r&lt;span style=&quot;font-size: 10px;&quot;&gt;&lt;sub&gt;1&lt;/sub&gt;&lt;/span&gt;" style="text;html=1;strokeColor=none;fillColor=none;align=center;verticalAlign=middle;whiteSpace=wrap;rounded=0;" vertex="1" parent="1">
          <mxGeometry x="-60" y="280" width="40" height="40" as="geometry" />
        </mxCell>
        <mxCell id="nOa9KcKh8e6igN_ZCxx_-39" style="edgeStyle=orthogonalEdgeStyle;rounded=0;orthogonalLoop=1;jettySize=auto;html=1;exitX=0.5;exitY=1;exitDx=0;exitDy=0;entryX=0.5;entryY=0;entryDx=0;entryDy=0;" edge="1" source="nOa9KcKh8e6igN_ZCxx_-40" target="nOa9KcKh8e6igN_ZCxx_-41" parent="1">
          <mxGeometry relative="1" as="geometry" />
        </mxCell>
        <mxCell id="nOa9KcKh8e6igN_ZCxx_-48" value="assignAdjoints r&lt;sub&gt;2&lt;/sub&gt;" style="edgeStyle=orthogonalEdgeStyle;rounded=1;orthogonalLoop=1;jettySize=auto;html=1;exitX=0.75;exitY=0;exitDx=0;exitDy=0;entryX=0.25;entryY=0;entryDx=0;entryDy=0;" edge="1" parent="1" source="nOa9KcKh8e6igN_ZCxx_-40" target="nOa9KcKh8e6igN_ZCxx_-44">
          <mxGeometry relative="1" as="geometry" />
        </mxCell>
        <mxCell id="nOa9KcKh8e6igN_ZCxx_-40" value="f&#39;(x&lt;sub&gt;1&lt;/sub&gt;,x&lt;sub&gt;2&lt;/sub&gt;)" style="rounded=0;whiteSpace=wrap;html=1;fillColor=#fff2cc;strokeColor=#d6b656;" vertex="1" parent="1">
          <mxGeometry x="240" y="120" width="80" height="40" as="geometry" />
        </mxCell>
        <mxCell id="nOa9KcKh8e6igN_ZCxx_-41" value="+" style="ellipse;whiteSpace=wrap;html=1;fillColor=#dae8fc;strokeColor=#6c8ebf;" vertex="1" parent="1">
          <mxGeometry x="260" y="200" width="40" height="40" as="geometry" />
        </mxCell>
        <mxCell id="nOa9KcKh8e6igN_ZCxx_-42" value="r&#39;&lt;sub&gt;2&amp;nbsp;&lt;/sub&gt;= ([a], Just a)" style="text;html=1;strokeColor=none;fillColor=none;align=left;verticalAlign=middle;whiteSpace=wrap;rounded=0;" vertex="1" parent="1">
          <mxGeometry x="310" y="200" width="110" height="40" as="geometry" />
        </mxCell>
        <mxCell id="nOa9KcKh8e6igN_ZCxx_-54" value="explore/resolve x&lt;sub&gt;1&lt;br&gt;&lt;/sub&gt;" style="edgeStyle=orthogonalEdgeStyle;orthogonalLoop=1;jettySize=auto;html=1;exitX=0.75;exitY=0;exitDx=0;exitDy=0;rounded=1;endArrow=diamond;endFill=1;labelBackgroundColor=none;" edge="1" parent="1" source="nOa9KcKh8e6igN_ZCxx_-44">
          <mxGeometry y="10" relative="1" as="geometry">
            <mxPoint x="560" y="100" as="targetPoint" />
            <Array as="points">
              <mxPoint x="500" y="100" />
            </Array>
            <mxPoint as="offset" />
          </mxGeometry>
        </mxCell>
        <mxCell id="nOa9KcKh8e6igN_ZCxx_-44" value="f&#39;(x&lt;sub&gt;1&lt;/sub&gt;,x&lt;sub&gt;2&lt;/sub&gt;)" style="rounded=0;whiteSpace=wrap;html=1;fillColor=#fff2cc;strokeColor=#d6b656;" vertex="1" parent="1">
          <mxGeometry x="440" y="120" width="80" height="40" as="geometry" />
        </mxCell>
        <mxCell id="nOa9KcKh8e6igN_ZCxx_-45" style="edgeStyle=orthogonalEdgeStyle;rounded=0;orthogonalLoop=1;jettySize=auto;html=1;exitX=0.5;exitY=1;exitDx=0;exitDy=0;entryX=0.5;entryY=0;entryDx=0;entryDy=0;" edge="1" target="nOa9KcKh8e6igN_ZCxx_-46" parent="1" source="nOa9KcKh8e6igN_ZCxx_-44">
          <mxGeometry relative="1" as="geometry">
            <mxPoint x="480" y="160" as="sourcePoint" />
          </mxGeometry>
        </mxCell>
        <mxCell id="nOa9KcKh8e6igN_ZCxx_-52" style="rounded=0;orthogonalLoop=1;jettySize=auto;html=1;exitX=0;exitY=1;exitDx=0;exitDy=0;entryX=0.5;entryY=0;entryDx=0;entryDy=0;" edge="1" parent="1" source="nOa9KcKh8e6igN_ZCxx_-46" target="nOa9KcKh8e6igN_ZCxx_-50">
          <mxGeometry relative="1" as="geometry" />
        </mxCell>
        <mxCell id="nOa9KcKh8e6igN_ZCxx_-53" style="rounded=0;orthogonalLoop=1;jettySize=auto;html=1;exitX=1;exitY=1;exitDx=0;exitDy=0;entryX=0.5;entryY=0;entryDx=0;entryDy=0;" edge="1" parent="1" source="nOa9KcKh8e6igN_ZCxx_-46" target="nOa9KcKh8e6igN_ZCxx_-51">
          <mxGeometry relative="1" as="geometry" />
        </mxCell>
        <mxCell id="nOa9KcKh8e6igN_ZCxx_-46" value="+" style="ellipse;whiteSpace=wrap;html=1;fillColor=#dae8fc;strokeColor=#6c8ebf;" vertex="1" parent="1">
          <mxGeometry x="460" y="200" width="40" height="40" as="geometry" />
        </mxCell>
        <mxCell id="nOa9KcKh8e6igN_ZCxx_-47" value="r&#39;&lt;sub&gt;2&amp;nbsp;&lt;/sub&gt;= ([a], Just a)" style="text;html=1;strokeColor=none;fillColor=none;align=left;verticalAlign=middle;whiteSpace=wrap;rounded=0;" vertex="1" parent="1">
          <mxGeometry x="510" y="200" width="110" height="40" as="geometry" />
        </mxCell>
        <mxCell id="nOa9KcKh8e6igN_ZCxx_-50" value="x&lt;sub&gt;1&lt;/sub&gt;" style="rounded=0;whiteSpace=wrap;html=1;fillColor=#fff2cc;strokeColor=#d6b656;" vertex="1" parent="1">
          <mxGeometry x="420" y="360" width="40" height="40" as="geometry" />
        </mxCell>
        <mxCell id="nOa9KcKh8e6igN_ZCxx_-51" value="&lt;font style=&quot;font-size: 21px;&quot;&gt;&lt;sub&gt;*&lt;/sub&gt;&lt;/font&gt;" style="ellipse;whiteSpace=wrap;html=1;fillColor=#d5e8d4;strokeColor=#82b366;" vertex="1" parent="1">
          <mxGeometry x="500" y="280" width="40" height="40" as="geometry" />
        </mxCell>
        <mxCell id="nOa9KcKh8e6igN_ZCxx_-55" value="r&#39;&lt;sub&gt;1&amp;nbsp;&lt;/sub&gt;= ([a], Nothing)" style="text;html=1;strokeColor=none;fillColor=none;align=left;verticalAlign=middle;whiteSpace=wrap;rounded=0;" vertex="1" parent="1">
          <mxGeometry x="550" y="280" width="110" height="40" as="geometry" />
        </mxCell>
        <mxCell id="nOa9KcKh8e6igN_ZCxx_-56" value="x&#39;&lt;sub&gt;1&amp;nbsp;&lt;/sub&gt;= ([a], Nothing)" style="text;html=1;strokeColor=none;fillColor=none;align=left;verticalAlign=middle;whiteSpace=wrap;rounded=0;" vertex="1" parent="1">
          <mxGeometry x="385" y="400" width="110" height="40" as="geometry" />
        </mxCell>
        <mxCell id="nOa9KcKh8e6igN_ZCxx_-68" style="edgeStyle=orthogonalEdgeStyle;rounded=1;orthogonalLoop=1;jettySize=auto;html=1;entryX=0.25;entryY=0;entryDx=0;entryDy=0;startArrow=diamond;startFill=1;" edge="1" parent="1" target="nOa9KcKh8e6igN_ZCxx_-57">
          <mxGeometry relative="1" as="geometry">
            <mxPoint x="-210" y="470" as="targetPoint" />
            <mxPoint x="-200" y="500" as="sourcePoint" />
          </mxGeometry>
        </mxCell>
        <mxCell id="nOa9KcKh8e6igN_ZCxx_-80" value="explore/resolve r&lt;sub&gt;1&lt;/sub&gt;&lt;br&gt;combineAdjoints r&lt;sub&gt;1&lt;/sub&gt;" style="edgeStyle=orthogonalEdgeStyle;rounded=1;orthogonalLoop=1;jettySize=auto;html=1;exitX=0.75;exitY=0;exitDx=0;exitDy=0;entryX=0.25;entryY=0;entryDx=0;entryDy=0;align=left;" edge="1" parent="1" source="nOa9KcKh8e6igN_ZCxx_-57" target="nOa9KcKh8e6igN_ZCxx_-69">
          <mxGeometry x="-0.5" relative="1" as="geometry">
            <mxPoint as="offset" />
          </mxGeometry>
        </mxCell>
        <mxCell id="nOa9KcKh8e6igN_ZCxx_-57" value="f&#39;(x&lt;sub&gt;1&lt;/sub&gt;,x&lt;sub&gt;2&lt;/sub&gt;)" style="rounded=0;whiteSpace=wrap;html=1;fillColor=#fff2cc;strokeColor=#d6b656;" vertex="1" parent="1">
          <mxGeometry x="-160" y="520" width="80" height="40" as="geometry" />
        </mxCell>
        <mxCell id="nOa9KcKh8e6igN_ZCxx_-58" style="edgeStyle=orthogonalEdgeStyle;rounded=0;orthogonalLoop=1;jettySize=auto;html=1;exitX=0.5;exitY=1;exitDx=0;exitDy=0;entryX=0.5;entryY=0;entryDx=0;entryDy=0;" edge="1" source="nOa9KcKh8e6igN_ZCxx_-57" target="nOa9KcKh8e6igN_ZCxx_-61" parent="1">
          <mxGeometry relative="1" as="geometry">
            <mxPoint x="-120" y="560" as="sourcePoint" />
          </mxGeometry>
        </mxCell>
        <mxCell id="nOa9KcKh8e6igN_ZCxx_-59" style="rounded=0;orthogonalLoop=1;jettySize=auto;html=1;exitX=0;exitY=1;exitDx=0;exitDy=0;entryX=0.5;entryY=0;entryDx=0;entryDy=0;" edge="1" source="nOa9KcKh8e6igN_ZCxx_-61" target="nOa9KcKh8e6igN_ZCxx_-63" parent="1">
          <mxGeometry relative="1" as="geometry" />
        </mxCell>
        <mxCell id="nOa9KcKh8e6igN_ZCxx_-60" style="rounded=0;orthogonalLoop=1;jettySize=auto;html=1;exitX=1;exitY=1;exitDx=0;exitDy=0;entryX=0.5;entryY=0;entryDx=0;entryDy=0;" edge="1" source="nOa9KcKh8e6igN_ZCxx_-61" target="nOa9KcKh8e6igN_ZCxx_-64" parent="1">
          <mxGeometry relative="1" as="geometry" />
        </mxCell>
        <mxCell id="nOa9KcKh8e6igN_ZCxx_-61" value="+" style="ellipse;whiteSpace=wrap;html=1;fillColor=#dae8fc;strokeColor=#6c8ebf;" vertex="1" parent="1">
          <mxGeometry x="-140" y="600" width="40" height="40" as="geometry" />
        </mxCell>
        <mxCell id="nOa9KcKh8e6igN_ZCxx_-62" value="r&#39;&lt;sub&gt;2&amp;nbsp;&lt;/sub&gt;= ([a], Just a)" style="text;html=1;strokeColor=none;fillColor=none;align=left;verticalAlign=middle;whiteSpace=wrap;rounded=0;" vertex="1" parent="1">
          <mxGeometry x="-90" y="600" width="110" height="40" as="geometry" />
        </mxCell>
        <mxCell id="nOa9KcKh8e6igN_ZCxx_-63" value="x&lt;sub&gt;1&lt;/sub&gt;" style="rounded=0;whiteSpace=wrap;html=1;fillColor=#fff2cc;strokeColor=#d6b656;" vertex="1" parent="1">
          <mxGeometry x="-180" y="760" width="40" height="40" as="geometry" />
        </mxCell>
        <mxCell id="nOa9KcKh8e6igN_ZCxx_-67" style="rounded=0;orthogonalLoop=1;jettySize=auto;html=1;exitX=0;exitY=1;exitDx=0;exitDy=0;entryX=1;entryY=0;entryDx=0;entryDy=0;dashed=1;fillColor=#f8cecc;strokeColor=#b85450;" edge="1" parent="1" source="nOa9KcKh8e6igN_ZCxx_-64" target="nOa9KcKh8e6igN_ZCxx_-63">
          <mxGeometry relative="1" as="geometry" />
        </mxCell>
        <mxCell id="nOa9KcKh8e6igN_ZCxx_-64" value="&lt;font style=&quot;font-size: 21px;&quot;&gt;&lt;sub&gt;*&lt;/sub&gt;&lt;/font&gt;" style="ellipse;whiteSpace=wrap;html=1;fillColor=#d5e8d4;strokeColor=#82b366;" vertex="1" parent="1">
          <mxGeometry x="-100" y="680" width="40" height="40" as="geometry" />
        </mxCell>
        <mxCell id="nOa9KcKh8e6igN_ZCxx_-65" value="r&#39;&lt;sub&gt;1&amp;nbsp;&lt;/sub&gt;= ([a], Nothing)" style="text;html=1;strokeColor=none;fillColor=none;align=left;verticalAlign=middle;whiteSpace=wrap;rounded=0;" vertex="1" parent="1">
          <mxGeometry x="-50" y="680" width="110" height="40" as="geometry" />
        </mxCell>
        <mxCell id="nOa9KcKh8e6igN_ZCxx_-66" value="x&#39;&lt;sub&gt;1&amp;nbsp;&lt;/sub&gt;= ([a], Nothing)" style="text;html=1;strokeColor=none;fillColor=none;align=left;verticalAlign=middle;whiteSpace=wrap;rounded=0;" vertex="1" parent="1">
          <mxGeometry x="-215" y="800" width="110" height="40" as="geometry" />
        </mxCell>
        <mxCell id="nOa9KcKh8e6igN_ZCxx_-91" value="assignAdjoints r&lt;sub&gt;1&lt;/sub&gt;" style="edgeStyle=orthogonalEdgeStyle;rounded=1;orthogonalLoop=1;jettySize=auto;html=1;exitX=0.75;exitY=0;exitDx=0;exitDy=0;entryX=0.25;entryY=0;entryDx=0;entryDy=0;" edge="1" parent="1" source="nOa9KcKh8e6igN_ZCxx_-69" target="nOa9KcKh8e6igN_ZCxx_-81">
          <mxGeometry relative="1" as="geometry" />
        </mxCell>
        <mxCell id="nOa9KcKh8e6igN_ZCxx_-69" value="f&#39;(x&lt;sub&gt;1&lt;/sub&gt;,x&lt;sub&gt;2&lt;/sub&gt;)" style="rounded=0;whiteSpace=wrap;html=1;fillColor=#fff2cc;strokeColor=#d6b656;" vertex="1" parent="1">
          <mxGeometry x="40" y="520" width="80" height="40" as="geometry" />
        </mxCell>
        <mxCell id="nOa9KcKh8e6igN_ZCxx_-70" style="edgeStyle=orthogonalEdgeStyle;rounded=0;orthogonalLoop=1;jettySize=auto;html=1;exitX=0.5;exitY=1;exitDx=0;exitDy=0;entryX=0.5;entryY=0;entryDx=0;entryDy=0;" edge="1" source="nOa9KcKh8e6igN_ZCxx_-69" target="nOa9KcKh8e6igN_ZCxx_-73" parent="1">
          <mxGeometry relative="1" as="geometry">
            <mxPoint x="80" y="560" as="sourcePoint" />
          </mxGeometry>
        </mxCell>
        <mxCell id="nOa9KcKh8e6igN_ZCxx_-71" style="rounded=0;orthogonalLoop=1;jettySize=auto;html=1;exitX=0;exitY=1;exitDx=0;exitDy=0;entryX=0.5;entryY=0;entryDx=0;entryDy=0;" edge="1" source="nOa9KcKh8e6igN_ZCxx_-73" target="nOa9KcKh8e6igN_ZCxx_-75" parent="1">
          <mxGeometry relative="1" as="geometry" />
        </mxCell>
        <mxCell id="nOa9KcKh8e6igN_ZCxx_-72" style="rounded=0;orthogonalLoop=1;jettySize=auto;html=1;exitX=1;exitY=1;exitDx=0;exitDy=0;entryX=0.5;entryY=0;entryDx=0;entryDy=0;" edge="1" source="nOa9KcKh8e6igN_ZCxx_-73" target="nOa9KcKh8e6igN_ZCxx_-77" parent="1">
          <mxGeometry relative="1" as="geometry" />
        </mxCell>
        <mxCell id="nOa9KcKh8e6igN_ZCxx_-73" value="+" style="ellipse;whiteSpace=wrap;html=1;fillColor=#d5e8d4;strokeColor=#82b366;" vertex="1" parent="1">
          <mxGeometry x="60" y="600" width="40" height="40" as="geometry" />
        </mxCell>
        <mxCell id="nOa9KcKh8e6igN_ZCxx_-74" value="r&#39;&lt;sub&gt;2&amp;nbsp;&lt;/sub&gt;= ([a], Just a)" style="text;html=1;strokeColor=none;fillColor=none;align=left;verticalAlign=middle;whiteSpace=wrap;rounded=0;" vertex="1" parent="1">
          <mxGeometry x="110" y="600" width="110" height="40" as="geometry" />
        </mxCell>
        <mxCell id="nOa9KcKh8e6igN_ZCxx_-75" value="x&lt;sub&gt;1&lt;/sub&gt;" style="rounded=0;whiteSpace=wrap;html=1;fillColor=#fff2cc;strokeColor=#d6b656;" vertex="1" parent="1">
          <mxGeometry x="20" y="760" width="40" height="40" as="geometry" />
        </mxCell>
        <mxCell id="nOa9KcKh8e6igN_ZCxx_-77" value="&lt;font style=&quot;font-size: 21px;&quot;&gt;&lt;sub&gt;*&lt;/sub&gt;&lt;/font&gt;" style="ellipse;whiteSpace=wrap;html=1;fillColor=#dae8fc;strokeColor=#6c8ebf;" vertex="1" parent="1">
          <mxGeometry x="100" y="680" width="40" height="40" as="geometry" />
        </mxCell>
        <mxCell id="nOa9KcKh8e6igN_ZCxx_-78" value="r&#39;&lt;sub&gt;1&amp;nbsp;&lt;/sub&gt;= ([a], Just a)" style="text;html=1;strokeColor=none;fillColor=none;align=left;verticalAlign=middle;whiteSpace=wrap;rounded=0;" vertex="1" parent="1">
          <mxGeometry x="150" y="680" width="110" height="40" as="geometry" />
        </mxCell>
        <mxCell id="nOa9KcKh8e6igN_ZCxx_-79" value="x&#39;&lt;sub&gt;1&amp;nbsp;&lt;/sub&gt;= ([a], Nothing)" style="text;html=1;strokeColor=none;fillColor=none;align=left;verticalAlign=middle;whiteSpace=wrap;rounded=0;" vertex="1" parent="1">
          <mxGeometry x="-15" y="800" width="110" height="40" as="geometry" />
        </mxCell>
        <mxCell id="nOa9KcKh8e6igN_ZCxx_-112" value="explore/resolve x&lt;sub&gt;1&lt;/sub&gt;&lt;br&gt;combineAdjoints x&lt;sub&gt;1&lt;/sub&gt;&lt;br&gt;explore/resolve x&lt;sub&gt;2&lt;/sub&gt;&lt;br&gt;combineAdjoints x&lt;sub&gt;2&lt;/sub&gt;" style="edgeStyle=orthogonalEdgeStyle;rounded=1;orthogonalLoop=1;jettySize=auto;html=1;exitX=0.75;exitY=0;exitDx=0;exitDy=0;entryX=0.25;entryY=0;entryDx=0;entryDy=0;align=left;" edge="1" parent="1" source="nOa9KcKh8e6igN_ZCxx_-81" target="nOa9KcKh8e6igN_ZCxx_-98">
          <mxGeometry x="-0.5" relative="1" as="geometry">
            <mxPoint as="offset" />
          </mxGeometry>
        </mxCell>
        <mxCell id="nOa9KcKh8e6igN_ZCxx_-81" value="f&#39;(x&lt;sub&gt;1&lt;/sub&gt;,x&lt;sub&gt;2&lt;/sub&gt;)" style="rounded=0;whiteSpace=wrap;html=1;fillColor=#fff2cc;strokeColor=#d6b656;" vertex="1" parent="1">
          <mxGeometry x="240" y="520" width="80" height="40" as="geometry" />
        </mxCell>
        <mxCell id="nOa9KcKh8e6igN_ZCxx_-82" style="edgeStyle=orthogonalEdgeStyle;rounded=0;orthogonalLoop=1;jettySize=auto;html=1;exitX=0.5;exitY=1;exitDx=0;exitDy=0;entryX=0.5;entryY=0;entryDx=0;entryDy=0;" edge="1" source="nOa9KcKh8e6igN_ZCxx_-81" target="nOa9KcKh8e6igN_ZCxx_-85" parent="1">
          <mxGeometry relative="1" as="geometry">
            <mxPoint x="280" y="560" as="sourcePoint" />
          </mxGeometry>
        </mxCell>
        <mxCell id="nOa9KcKh8e6igN_ZCxx_-83" style="rounded=0;orthogonalLoop=1;jettySize=auto;html=1;exitX=0;exitY=1;exitDx=0;exitDy=0;entryX=0.5;entryY=0;entryDx=0;entryDy=0;" edge="1" source="nOa9KcKh8e6igN_ZCxx_-85" target="nOa9KcKh8e6igN_ZCxx_-87" parent="1">
          <mxGeometry relative="1" as="geometry" />
        </mxCell>
        <mxCell id="nOa9KcKh8e6igN_ZCxx_-84" style="rounded=0;orthogonalLoop=1;jettySize=auto;html=1;exitX=1;exitY=1;exitDx=0;exitDy=0;entryX=0.5;entryY=0;entryDx=0;entryDy=0;" edge="1" source="nOa9KcKh8e6igN_ZCxx_-85" target="nOa9KcKh8e6igN_ZCxx_-88" parent="1">
          <mxGeometry relative="1" as="geometry" />
        </mxCell>
        <mxCell id="nOa9KcKh8e6igN_ZCxx_-85" value="+" style="ellipse;whiteSpace=wrap;html=1;fillColor=#d5e8d4;strokeColor=#82b366;" vertex="1" parent="1">
          <mxGeometry x="260" y="600" width="40" height="40" as="geometry" />
        </mxCell>
        <mxCell id="nOa9KcKh8e6igN_ZCxx_-86" value="r&#39;&lt;sub&gt;2&amp;nbsp;&lt;/sub&gt;= ([a], Just a)" style="text;html=1;strokeColor=none;fillColor=none;align=left;verticalAlign=middle;whiteSpace=wrap;rounded=0;" vertex="1" parent="1">
          <mxGeometry x="310" y="600" width="110" height="40" as="geometry" />
        </mxCell>
        <mxCell id="nOa9KcKh8e6igN_ZCxx_-87" value="x&lt;sub&gt;1&lt;/sub&gt;" style="rounded=0;whiteSpace=wrap;html=1;fillColor=#fff2cc;strokeColor=#d6b656;" vertex="1" parent="1">
          <mxGeometry x="220" y="760" width="40" height="40" as="geometry" />
        </mxCell>
        <mxCell id="nOa9KcKh8e6igN_ZCxx_-93" style="rounded=0;orthogonalLoop=1;jettySize=auto;html=1;exitX=0;exitY=1;exitDx=0;exitDy=0;entryX=1;entryY=0;entryDx=0;entryDy=0;" edge="1" parent="1" source="nOa9KcKh8e6igN_ZCxx_-88" target="nOa9KcKh8e6igN_ZCxx_-87">
          <mxGeometry relative="1" as="geometry" />
        </mxCell>
        <mxCell id="nOa9KcKh8e6igN_ZCxx_-96" style="edgeStyle=orthogonalEdgeStyle;rounded=0;orthogonalLoop=1;jettySize=auto;html=1;exitX=0.5;exitY=1;exitDx=0;exitDy=0;entryX=0.5;entryY=0;entryDx=0;entryDy=0;" edge="1" parent="1" source="nOa9KcKh8e6igN_ZCxx_-88" target="nOa9KcKh8e6igN_ZCxx_-94">
          <mxGeometry relative="1" as="geometry" />
        </mxCell>
        <mxCell id="nOa9KcKh8e6igN_ZCxx_-88" value="&lt;font style=&quot;font-size: 21px;&quot;&gt;&lt;sub&gt;*&lt;/sub&gt;&lt;/font&gt;" style="ellipse;whiteSpace=wrap;html=1;fillColor=#dae8fc;strokeColor=#6c8ebf;" vertex="1" parent="1">
          <mxGeometry x="300" y="680" width="40" height="40" as="geometry" />
        </mxCell>
        <mxCell id="nOa9KcKh8e6igN_ZCxx_-89" value="r&#39;&lt;sub&gt;1&amp;nbsp;&lt;/sub&gt;= ([a], Just a)" style="text;html=1;strokeColor=none;fillColor=none;align=left;verticalAlign=middle;whiteSpace=wrap;rounded=0;" vertex="1" parent="1">
          <mxGeometry x="350" y="680" width="110" height="40" as="geometry" />
        </mxCell>
        <mxCell id="nOa9KcKh8e6igN_ZCxx_-90" value="x&#39;&lt;sub&gt;1&amp;nbsp;&lt;/sub&gt;= ([a, a*x&lt;sub&gt;2&lt;/sub&gt;], Nothing)" style="text;html=1;strokeColor=none;fillColor=none;align=center;verticalAlign=middle;whiteSpace=wrap;rounded=0;" vertex="1" parent="1">
          <mxGeometry x="165" y="800" width="150" height="40" as="geometry" />
        </mxCell>
        <mxCell id="nOa9KcKh8e6igN_ZCxx_-94" value="x&lt;sub&gt;2&lt;/sub&gt;" style="rounded=0;whiteSpace=wrap;html=1;fillColor=#fff2cc;strokeColor=#d6b656;" vertex="1" parent="1">
          <mxGeometry x="300" y="760" width="40" height="40" as="geometry" />
        </mxCell>
        <mxCell id="nOa9KcKh8e6igN_ZCxx_-97" value="x&#39;&lt;sub&gt;2&lt;/sub&gt;&amp;nbsp;= ([a*x&lt;sub&gt;1&lt;/sub&gt;], Nothing)" style="text;html=1;strokeColor=none;fillColor=none;align=left;verticalAlign=middle;whiteSpace=wrap;rounded=0;" vertex="1" parent="1">
          <mxGeometry x="320" y="720" width="120" height="40" as="geometry" />
        </mxCell>
        <mxCell id="nOa9KcKh8e6igN_ZCxx_-98" value="f&#39;(x&lt;sub&gt;1&lt;/sub&gt;,x&lt;sub&gt;2&lt;/sub&gt;)" style="rounded=0;whiteSpace=wrap;html=1;fillColor=#fff2cc;strokeColor=#d6b656;" vertex="1" parent="1">
          <mxGeometry x="440" y="520" width="80" height="40" as="geometry" />
        </mxCell>
        <mxCell id="nOa9KcKh8e6igN_ZCxx_-99" style="edgeStyle=orthogonalEdgeStyle;rounded=0;orthogonalLoop=1;jettySize=auto;html=1;exitX=0.5;exitY=1;exitDx=0;exitDy=0;entryX=0.5;entryY=0;entryDx=0;entryDy=0;" edge="1" source="nOa9KcKh8e6igN_ZCxx_-98" target="nOa9KcKh8e6igN_ZCxx_-102" parent="1">
          <mxGeometry relative="1" as="geometry">
            <mxPoint x="480" y="560" as="sourcePoint" />
          </mxGeometry>
        </mxCell>
        <mxCell id="nOa9KcKh8e6igN_ZCxx_-100" style="rounded=0;orthogonalLoop=1;jettySize=auto;html=1;exitX=0;exitY=1;exitDx=0;exitDy=0;entryX=0.5;entryY=0;entryDx=0;entryDy=0;" edge="1" source="nOa9KcKh8e6igN_ZCxx_-102" target="nOa9KcKh8e6igN_ZCxx_-104" parent="1">
          <mxGeometry relative="1" as="geometry" />
        </mxCell>
        <mxCell id="nOa9KcKh8e6igN_ZCxx_-101" style="rounded=0;orthogonalLoop=1;jettySize=auto;html=1;exitX=1;exitY=1;exitDx=0;exitDy=0;entryX=0.5;entryY=0;entryDx=0;entryDy=0;" edge="1" source="nOa9KcKh8e6igN_ZCxx_-102" target="nOa9KcKh8e6igN_ZCxx_-107" parent="1">
          <mxGeometry relative="1" as="geometry" />
        </mxCell>
        <mxCell id="nOa9KcKh8e6igN_ZCxx_-102" value="+" style="ellipse;whiteSpace=wrap;html=1;fillColor=#d5e8d4;strokeColor=#82b366;" vertex="1" parent="1">
          <mxGeometry x="460" y="600" width="40" height="40" as="geometry" />
        </mxCell>
        <mxCell id="nOa9KcKh8e6igN_ZCxx_-103" value="r&#39;&lt;sub&gt;2&amp;nbsp;&lt;/sub&gt;= ([a], Just a)" style="text;html=1;strokeColor=none;fillColor=none;align=left;verticalAlign=middle;whiteSpace=wrap;rounded=0;" vertex="1" parent="1">
          <mxGeometry x="510" y="600" width="110" height="40" as="geometry" />
        </mxCell>
        <mxCell id="nOa9KcKh8e6igN_ZCxx_-104" value="x&lt;sub&gt;1&lt;/sub&gt;" style="rounded=0;whiteSpace=wrap;html=1;fillColor=#fff2cc;strokeColor=#d6b656;" vertex="1" parent="1">
          <mxGeometry x="420" y="760" width="40" height="40" as="geometry" />
        </mxCell>
        <mxCell id="nOa9KcKh8e6igN_ZCxx_-105" style="rounded=0;orthogonalLoop=1;jettySize=auto;html=1;exitX=0;exitY=1;exitDx=0;exitDy=0;entryX=1;entryY=0;entryDx=0;entryDy=0;" edge="1" source="nOa9KcKh8e6igN_ZCxx_-107" target="nOa9KcKh8e6igN_ZCxx_-104" parent="1">
          <mxGeometry relative="1" as="geometry" />
        </mxCell>
        <mxCell id="nOa9KcKh8e6igN_ZCxx_-106" style="edgeStyle=orthogonalEdgeStyle;rounded=0;orthogonalLoop=1;jettySize=auto;html=1;exitX=0.5;exitY=1;exitDx=0;exitDy=0;entryX=0.5;entryY=0;entryDx=0;entryDy=0;" edge="1" source="nOa9KcKh8e6igN_ZCxx_-107" target="nOa9KcKh8e6igN_ZCxx_-110" parent="1">
          <mxGeometry relative="1" as="geometry" />
        </mxCell>
        <mxCell id="nOa9KcKh8e6igN_ZCxx_-107" value="&lt;font style=&quot;font-size: 21px;&quot;&gt;&lt;sub&gt;*&lt;/sub&gt;&lt;/font&gt;" style="ellipse;whiteSpace=wrap;html=1;fillColor=#d5e8d4;strokeColor=#82b366;" vertex="1" parent="1">
          <mxGeometry x="500" y="680" width="40" height="40" as="geometry" />
        </mxCell>
        <mxCell id="nOa9KcKh8e6igN_ZCxx_-108" value="r&#39;&lt;sub&gt;1&amp;nbsp;&lt;/sub&gt;= ([a], Just a)" style="text;html=1;strokeColor=none;fillColor=none;align=left;verticalAlign=middle;whiteSpace=wrap;rounded=0;" vertex="1" parent="1">
          <mxGeometry x="550" y="680" width="110" height="40" as="geometry" />
        </mxCell>
        <mxCell id="nOa9KcKh8e6igN_ZCxx_-109" value="x&#39;&lt;sub&gt;1&amp;nbsp;&lt;/sub&gt;= ([a, a*x&lt;sub&gt;2&lt;/sub&gt;], Just a+a*x&lt;sub&gt;2&lt;/sub&gt;)" style="text;html=1;strokeColor=none;fillColor=none;align=center;verticalAlign=middle;whiteSpace=wrap;rounded=0;" vertex="1" parent="1">
          <mxGeometry x="360" y="800" width="150" height="40" as="geometry" />
        </mxCell>
        <mxCell id="nOa9KcKh8e6igN_ZCxx_-110" value="x&lt;sub&gt;2&lt;/sub&gt;" style="rounded=0;whiteSpace=wrap;html=1;fillColor=#fff2cc;strokeColor=#d6b656;" vertex="1" parent="1">
          <mxGeometry x="500" y="760" width="40" height="40" as="geometry" />
        </mxCell>
        <mxCell id="nOa9KcKh8e6igN_ZCxx_-111" value="x&#39;&lt;sub&gt;2&lt;/sub&gt;&amp;nbsp;= ([a*x&lt;sub&gt;1&lt;/sub&gt;], Just a*x&lt;sub&gt;1&lt;/sub&gt;)" style="text;html=1;strokeColor=none;fillColor=none;align=left;verticalAlign=middle;whiteSpace=wrap;rounded=0;" vertex="1" parent="1">
          <mxGeometry x="545" y="760" width="135" height="40" as="geometry" />
        </mxCell>
        <mxCell id="nOa9KcKh8e6igN_ZCxx_-113" value="(A)" style="text;html=1;strokeColor=none;fillColor=none;align=center;verticalAlign=middle;whiteSpace=wrap;rounded=0;" vertex="1" parent="1">
          <mxGeometry x="-200" y="120" width="40" height="40" as="geometry" />
        </mxCell>
        <mxCell id="nOa9KcKh8e6igN_ZCxx_-115" value="(B)" style="text;html=1;strokeColor=none;fillColor=none;align=center;verticalAlign=middle;whiteSpace=wrap;rounded=0;" vertex="1" parent="1">
          <mxGeometry y="120" width="40" height="40" as="geometry" />
        </mxCell>
        <mxCell id="nOa9KcKh8e6igN_ZCxx_-116" value="(C)" style="text;html=1;strokeColor=none;fillColor=none;align=center;verticalAlign=middle;whiteSpace=wrap;rounded=0;" vertex="1" parent="1">
          <mxGeometry x="200" y="120" width="40" height="40" as="geometry" />
        </mxCell>
        <mxCell id="nOa9KcKh8e6igN_ZCxx_-117" value="(D)" style="text;html=1;strokeColor=none;fillColor=none;align=center;verticalAlign=middle;whiteSpace=wrap;rounded=0;" vertex="1" parent="1">
          <mxGeometry x="400" y="120" width="40" height="40" as="geometry" />
        </mxCell>
        <mxCell id="nOa9KcKh8e6igN_ZCxx_-118" value="(E)" style="text;html=1;strokeColor=none;fillColor=none;align=center;verticalAlign=middle;whiteSpace=wrap;rounded=0;" vertex="1" parent="1">
          <mxGeometry x="-200" y="520" width="40" height="40" as="geometry" />
        </mxCell>
        <mxCell id="nOa9KcKh8e6igN_ZCxx_-119" value="(F)" style="text;html=1;strokeColor=none;fillColor=none;align=center;verticalAlign=middle;whiteSpace=wrap;rounded=0;" vertex="1" parent="1">
          <mxGeometry y="520" width="40" height="40" as="geometry" />
        </mxCell>
        <mxCell id="nOa9KcKh8e6igN_ZCxx_-120" value="(G)" style="text;html=1;strokeColor=none;fillColor=none;align=center;verticalAlign=middle;whiteSpace=wrap;rounded=0;" vertex="1" parent="1">
          <mxGeometry x="200" y="520" width="40" height="40" as="geometry" />
        </mxCell>
        <mxCell id="nOa9KcKh8e6igN_ZCxx_-121" value="(H)" style="text;html=1;strokeColor=none;fillColor=none;align=center;verticalAlign=middle;whiteSpace=wrap;rounded=0;" vertex="1" parent="1">
          <mxGeometry x="400" y="520" width="40" height="40" as="geometry" />
        </mxCell>
      </root>
    </mxGraphModel>
  </diagram>
</mxfile>
